<svg width="25" height="24" viewBox="0 0 25 24" fill="none" xmlns="http://www.w3.org/2000/svg">
<path d="M12.5049 6.60928C9.39941 6.60928 6.89453 9.01396 6.89453 11.9952C6.89453 14.9765 9.39941 17.3812 12.5049 17.3812C15.6104 17.3812 18.1152 14.9765 18.1152 11.9952C18.1152 9.01396 15.6104 6.60928 12.5049 6.60928ZM12.5049 15.4968C10.498 15.4968 8.85742 13.9265 8.85742 11.9952C8.85742 10.064 10.4932 8.49365 12.5049 8.49365C14.5166 8.49365 16.1523 10.064 16.1523 11.9952C16.1523 13.9265 14.5117 15.4968 12.5049 15.4968ZM19.6533 6.38896C19.6533 7.0874 19.0674 7.64522 18.3447 7.64522C17.6172 7.64522 17.0361 7.08271 17.0361 6.38896C17.0361 5.69521 17.6221 5.13271 18.3447 5.13271C19.0674 5.13271 19.6533 5.69521 19.6533 6.38896ZM23.3691 7.66397C23.2861 5.98115 22.8857 4.49053 21.6016 3.2624C20.3223 2.03428 18.7695 1.6499 17.0166 1.56553C15.21 1.46709 9.79492 1.46709 7.98828 1.56553C6.24023 1.64521 4.6875 2.02959 3.40332 3.25771C2.11914 4.48584 1.72363 5.97646 1.63574 7.65928C1.5332 9.39365 1.5332 14.5921 1.63574 16.3265C1.71875 18.0093 2.11914 19.4999 3.40332 20.728C4.6875 21.9562 6.23535 22.3405 7.98828 22.4249C9.79492 22.5233 15.21 22.5233 17.0166 22.4249C18.7695 22.3452 20.3223 21.9608 21.6016 20.728C22.8809 19.4999 23.2812 18.0093 23.3691 16.3265C23.4717 14.5921 23.4717 9.39834 23.3691 7.66397ZM21.0352 18.1874C20.6543 19.1062 19.917 19.814 18.9551 20.1843C17.5146 20.7327 14.0967 20.6062 12.5049 20.6062C10.9131 20.6062 7.49023 20.728 6.05469 20.1843C5.09766 19.8187 4.36035 19.1108 3.97461 18.1874C3.40332 16.8046 3.53516 13.5233 3.53516 11.9952C3.53516 10.4671 3.4082 7.18115 3.97461 5.80303C4.35547 4.88428 5.09277 4.17646 6.05469 3.80615C7.49512 3.25771 10.9131 3.38428 12.5049 3.38428C14.0967 3.38428 17.5195 3.2624 18.9551 3.80615C19.9121 4.17178 20.6494 4.87959 21.0352 5.80303C21.6064 7.18584 21.4746 10.4671 21.4746 11.9952C21.4746 13.5233 21.6064 16.8093 21.0352 18.1874Z" fill="white"/>
</svg>
