<svg width="25" height="24" viewBox="0 0 25 24" fill="none" xmlns="http://www.w3.org/2000/svg">
<path d="M23.8566 6.50346C23.584 5.51804 22.7808 4.74196 21.761 4.47858C19.9124 4 12.5001 4 12.5001 4C12.5001 4 5.08773 4 3.23917 4.47858C2.21933 4.742 1.41612 5.51804 1.14351 6.50346C0.648193 8.28958 0.648193 12.0162 0.648193 12.0162C0.648193 12.0162 0.648193 15.7428 1.14351 17.5289C1.41612 18.5143 2.21933 19.258 3.23917 19.5214C5.08773 20 12.5001 20 12.5001 20C12.5001 20 19.9124 20 21.761 19.5214C22.7808 19.258 23.584 18.5143 23.8566 17.5289C24.3519 15.7428 24.3519 12.0162 24.3519 12.0162C24.3519 12.0162 24.3519 8.28958 23.8566 6.50346ZM10.0758 15.3996V8.63271L16.2711 12.0163L10.0758 15.3996Z" fill="white"/>
</svg>
