<svg width="19" height="18" viewBox="0 0 19 18" fill="none" xmlns="http://www.w3.org/2000/svg">
<g clip-path="url(#clip0_38_251)">
<path d="M18.3172 5.73047C17.3939 5.0407 16.6287 4.48699 12.2201 1.45547C11.6041 1.02691 10.3795 0 9.51484 0H9.48516C8.62051 0 7.3959 1.02691 6.77617 1.45477C2.36758 4.48699 1.60312 5.00906 0.679102 5.72977C0.250488 6.04688 0 6.53906 0 7.05938V16.3125C0 17.2441 0.79748 18 1.78125 18H17.2188C18.2025 18 19 17.2445 19 16.3441V7.05938C19 6.53906 18.7514 6.04688 18.3172 5.73047ZM11.2516 12.9199C10.7283 13.3066 10.1123 13.5 9.5 13.5C8.8877 13.5 8.27316 13.3072 7.74992 12.921L2.375 8.96133V7.33008C3.16023 6.74684 4.09984 6.07641 8.17891 3.26953C8.29691 3.18769 8.43463 3.08718 8.58637 2.97587C8.79121 2.82797 9.1957 2.5302 9.5 2.34984C9.80456 2.53023 10.2103 2.82797 10.4133 2.97703C10.565 3.08834 10.7028 3.18892 10.827 3.27509C14.8771 6.06445 15.8309 6.73945 16.625 7.33008V8.95852L11.2516 12.9199Z" fill="white"/>
</g>
<defs>
<clipPath id="clip0_38_251">
<rect width="19" height="18" fill="white"/>
</clipPath>
</defs>
</svg>
