<svg width="20" height="18" viewBox="0 0 20 18" fill="none" xmlns="http://www.w3.org/2000/svg">
<g clip-path="url(#clip0_38_249)">
<path d="M19.4428 13.6057L18.5801 17.1494C18.4589 17.6504 17.9941 18.0009 17.4497 18.0009C8.08738 18.0002 0.472534 10.7861 0.472534 1.91622C0.472534 1.40083 0.842477 0.959973 1.37132 0.845715L5.11195 0.0283319C5.65671 -0.0912696 6.21335 0.176621 6.43972 0.665363L8.16605 4.47982C8.36785 4.92911 8.23173 5.45259 7.83281 5.76126L5.83484 7.28107C7.09581 9.71458 9.18433 11.6932 11.7538 12.8885L13.3896 10.9971C13.712 10.6181 14.2687 10.487 14.7429 10.6816L18.7693 12.3167C19.2536 12.558 19.569 13.0924 19.4428 13.6057Z" fill="white"/>
</g>
<defs>
<clipPath id="clip0_38_249">
<rect width="19" height="18" fill="white" transform="translate(0.472534)"/>
</clipPath>
</defs>
</svg>
