<svg width="45" height="45" viewBox="0 0 45 45" fill="none" xmlns="http://www.w3.org/2000/svg">
<g filter="url(#filter0_d_39_53)">
<path d="M34.8179 20.5C34.8179 13.8726 29.4453 8.5 22.8179 8.5C16.1905 8.5 10.8179 13.8726 10.8179 20.5C10.8179 27.1274 16.1905 32.5 22.8179 32.5C29.4453 32.5 34.8179 27.1274 34.8179 20.5Z" fill="#D11616"/>
</g>
<g clip-path="url(#clip0_39_53)">
<path d="M25.4428 15.25C24.4278 15.25 23.4537 15.7225 22.8178 16.4692C22.182 15.7225 21.2078 15.25 20.1928 15.25C18.3962 15.25 16.9845 16.6617 16.9845 18.4583C16.9845 20.6633 18.9678 22.46 21.972 25.19L22.8178 25.9542L23.6637 25.1842C26.6678 22.46 28.6512 20.6633 28.6512 18.4583C28.6512 16.6617 27.2395 15.25 25.4428 15.25ZM22.8762 24.3208L22.8178 24.3792L22.7595 24.3208C19.9828 21.8067 18.1512 20.1442 18.1512 18.4583C18.1512 17.2917 19.0262 16.4167 20.1928 16.4167C21.0912 16.4167 21.9662 16.9942 22.2753 17.7933H23.3662C23.6695 16.9942 24.5445 16.4167 25.4428 16.4167C26.6095 16.4167 27.4845 17.2917 27.4845 18.4583C27.4845 20.1442 25.6528 21.8067 22.8762 24.3208Z" fill="white"/>
</g>
<defs>
<filter id="filter0_d_39_53" x="0.817871" y="0.5" width="44" height="44" filterUnits="userSpaceOnUse" color-interpolation-filters="sRGB">
<feFlood flood-opacity="0" result="BackgroundImageFix"/>
<feColorMatrix in="SourceAlpha" type="matrix" values="0 0 0 0 0 0 0 0 0 0 0 0 0 0 0 0 0 0 127 0" result="hardAlpha"/>
<feOffset dy="2"/>
<feGaussianBlur stdDeviation="5"/>
<feComposite in2="hardAlpha" operator="out"/>
<feColorMatrix type="matrix" values="0 0 0 0 0 0 0 0 0 0 0 0 0 0 0 0 0 0 0.1 0"/>
<feBlend mode="normal" in2="BackgroundImageFix" result="effect1_dropShadow_39_53"/>
<feBlend mode="normal" in="SourceGraphic" in2="effect1_dropShadow_39_53" result="shape"/>
</filter>
<clipPath id="clip0_39_53">
<rect width="14" height="14" fill="white" transform="translate(15.8179 13.5)"/>
</clipPath>
</defs>
</svg>
