<svg width="235" height="17" viewBox="0 0 235 17" fill="none" xmlns="http://www.w3.org/2000/svg">
<path d="M133.737 6.5H3.28955C1.57829 6.5 0.19104 7.39543 0.19104 8.5C0.19104 9.60457 1.57829 10.5 3.28955 10.5H133.737C135.448 10.5 136.835 9.60457 136.835 8.5C136.835 7.39543 135.448 6.5 133.737 6.5Z" fill="#D11616"/>
<path d="M231.03 6.5H139.934C138.222 6.5 136.835 7.39543 136.835 8.5C136.835 9.60457 138.222 10.5 139.934 10.5H231.03C232.741 10.5 234.128 9.60457 234.128 8.5C234.128 7.39543 232.741 6.5 231.03 6.5Z" fill="#F6F1EC"/>
<path d="M149.229 8.5C149.229 4.08172 143.68 0.5 136.835 0.5C129.99 0.5 124.441 4.08172 124.441 8.5C124.441 12.9183 129.99 16.5 136.835 16.5C143.68 16.5 149.229 12.9183 149.229 8.5Z" fill="#D11616"/>
</svg>
