<svg width="717" height="24" viewBox="0 0 717 24" fill="none" xmlns="http://www.w3.org/2000/svg">
<path d="M416.302 8.25H6.31718C2.8283 8.25 0 9.92893 0 12C0 14.0711 2.8283 15.75 6.31718 15.75H416.302C419.791 15.75 422.619 14.0711 422.619 12C422.619 9.92893 419.791 8.25 416.302 8.25Z" fill="#FF3B30"/>
<path d="M710.683 8.25H428.937C425.448 8.25 422.619 9.92893 422.619 12C422.619 14.0711 425.448 15.75 428.937 15.75H710.683C714.172 15.75 717 14.0711 717 12C717 9.92893 714.172 8.25 710.683 8.25Z" fill="#E1E1E1"/>
<path d="M429 12C429 5.37258 423.627 0 417 0C410.373 0 405 5.37258 405 12C405 18.6274 410.373 24 417 24C423.627 24 429 18.6274 429 12Z" fill="#FF3B30"/>
</svg>
