<svg width="12" height="12" viewBox="0 0 12 12" fill="none" xmlns="http://www.w3.org/2000/svg">
<g clip-path="url(#clip0_38_37)">
<g clip-path="url(#clip1_38_37)">
<path d="M9.36508 7.67938C8.81314 7.67938 8.3167 7.91158 7.96422 8.28264L3.84569 6.26575C3.85986 6.17148 3.86961 6.07535 3.86961 5.97643C3.86961 5.8803 3.86032 5.78649 3.84685 5.69431L7.95934 3.69994C8.31205 4.07355 8.81059 4.30807 9.36508 4.30807C10.4339 4.30807 11.3 3.44174 11.3 2.37315C11.3 1.30434 10.4339 0.438232 9.36508 0.438232C8.29626 0.438232 7.43016 1.30434 7.43016 2.37315C7.43016 2.46928 7.43945 2.56286 7.45291 2.65528L3.34089 4.64964C2.98818 4.27603 2.48965 4.04151 1.93515 4.04151C0.866105 4.04151 0 4.90785 0 5.97643C0 7.04524 0.866105 7.91135 1.93492 7.91135C2.48686 7.91135 2.9833 7.67915 3.33578 7.30856L7.45408 9.32521C7.43968 9.41949 7.42993 9.51562 7.42993 9.6143C7.42993 10.6833 8.29603 11.5492 9.36485 11.5492C10.4337 11.5492 11.2998 10.6833 11.2998 9.6143C11.3 8.54549 10.4339 7.67938 9.36508 7.67938Z" fill="white"/>
</g>
</g>
<defs>
<clipPath id="clip0_38_37">
<rect width="11.3" height="11.3" fill="white" transform="translate(0 0.34375)"/>
</clipPath>
<clipPath id="clip1_38_37">
<rect width="11.3" height="11.3" fill="white" transform="translate(0 0.34375)"/>
</clipPath>
</defs>
</svg>
