<svg width="13" height="13" viewBox="0 0 13 13" fill="none" xmlns="http://www.w3.org/2000/svg">
<g clip-path="url(#clip0_38_48)">
<g clip-path="url(#clip1_38_48)">
<path d="M3.57695 12.0058H3.34473C2.58783 12.0058 1.96774 11.387 1.96774 10.6288V7.10526C1.96774 6.34836 2.58657 5.72827 3.34473 5.72827H3.57695C4.33385 5.72827 4.95394 6.3471 4.95394 7.10526V10.6299C4.95394 11.3868 4.33385 12.0058 3.57695 12.0058Z" fill="white"/>
<path d="M10.3702 12.0017H10.138C9.38112 12.0017 8.76103 11.3829 8.76103 10.6247V7.10257C8.76103 6.34567 9.37986 5.72559 10.138 5.72559H10.3702C11.1271 5.72559 11.7472 6.34441 11.7472 7.10257V10.6273C11.7485 11.3829 11.1284 12.0017 10.3702 12.0017Z" fill="white"/>
<path d="M1.44807 9.02693V6.60823C1.44807 3.64589 3.77401 1.13292 6.7351 1.06639C9.80915 0.997353 12.2719 3.4915 12.2719 6.54924V9.0258C12.2719 9.07423 12.2814 9.1222 12.2999 9.16695C12.3184 9.21171 12.3455 9.25238 12.3798 9.28665C12.414 9.32092 12.4546 9.34811 12.4993 9.36667C12.5441 9.38524 12.592 9.39481 12.6405 9.39484C12.6889 9.39488 12.7368 9.38537 12.7816 9.36687C12.8264 9.34836 12.867 9.32123 12.9013 9.287C12.9356 9.25278 12.9628 9.21215 12.9813 9.16742C12.9999 9.12269 13.0095 9.07474 13.0095 9.02631V6.58175C13.0095 3.13363 10.1877 0.229027 6.74087 0.295554C3.39995 0.358316 0.709992 3.08719 0.709992 6.44367V9.02693C0.709959 9.07536 0.719465 9.12333 0.737968 9.16808C0.75647 9.21284 0.783607 9.25351 0.817829 9.28778C0.852051 9.32205 0.892687 9.34924 0.937418 9.3678C0.982148 9.38637 1.0301 9.39594 1.07853 9.39597C1.17644 9.39594 1.27034 9.35706 1.33962 9.28788C1.4089 9.21869 1.4479 9.12485 1.44807 9.02693Z" fill="white"/>
</g>
</g>
<defs>
<clipPath id="clip0_38_48">
<rect width="12.29" height="12.29" fill="white" transform="translate(0.709991)"/>
</clipPath>
<clipPath id="clip1_38_48">
<rect width="12.3" height="11.7113" fill="white" transform="translate(0.709991 0.294434)"/>
</clipPath>
</defs>
</svg>
